<svg xmlns="http://www.w3.org/2000/svg" width="50.135" height="40" viewBox="0 0 50.135 40">
  <g id="그룹_5" data-name="그룹 5" transform="translate(-224.984 -245.439)">
    <g id="그룹_1" data-name="그룹 1" transform="translate(251.225 250.594)">
      <path id="패스_1" data-name="패스 1" d="M325.041,271.165c-1,.406-2.324-.527-2.951-2.081s-.325-3.142.676-3.546,2.322.526,2.951,2.081S326.043,270.761,325.041,271.165Z" transform="translate(-321.426 -265.105)" fill="#fff" fill-rule="evenodd"/>
      <path id="패스_2" data-name="패스 2" d="M321.75,264.332a1.825,1.825,0,0,0-.985,1.025,4.408,4.408,0,0,0,2.09,5.173,1.738,1.738,0,0,0,2.406-.969,3.152,3.152,0,0,0,.23-1.231,4.684,4.684,0,0,0-.352-1.732C324.431,264.845,322.942,263.849,321.75,264.332Zm1.369,5.578a3.368,3.368,0,0,1-1.606-1.846,3.317,3.317,0,0,1-.127-2.443,1.189,1.189,0,0,1,.617-.664c.813-.329,1.964.539,2.513,1.895a3.372,3.372,0,0,1,.126,2.446,1.184,1.184,0,0,1-.616.661h0A1.192,1.192,0,0,1,323.119,269.909Zm1.158.674Z" transform="translate(-320.536 -264.21)" fill="#3cb73c" fill-rule="evenodd"/>
      <path id="패스_3" data-name="패스 3" d="M327.629,273.678c-.42.169-1.008-.311-1.317-1.074s-.217-1.516.2-1.686,1.009.311,1.318,1.074S328.048,273.508,327.629,273.678Z" transform="translate(-324.592 -269.051)" fill="#fff" fill-rule="evenodd"/>
      <path id="패스_4" data-name="패스 4" d="M325.488,269.711c-.613.25-.779,1.164-.387,2.127a2.221,2.221,0,0,0,1.063,1.235.891.891,0,0,0,.692.024h0c.61-.248.776-1.162.387-2.125S326.1,269.465,325.488,269.711Zm.939,2.741a1.566,1.566,0,0,1-.7-.867c-.261-.641-.163-1.175.015-1.249s.618.247.877.889a2.034,2.034,0,0,1,.159.751c0,.27-.074.456-.174.5A.248.248,0,0,1,326.427,272.451Z" transform="translate(-323.694 -268.157)" fill="#3cb73c" fill-rule="evenodd"/>
    </g>
    <path id="패스_5" data-name="패스 5" d="M282.443,270.261s-1.261-.016-1.261,1.065,1.261,1.08,1.261,1.08h3.248L284.234,296.8s-2.625.164-5.62-4.308l1.109-.244-2.931-2.75-.578,3.913,1.09-.348s1.7,4.066,4.4,5.682,4.16,2.129,5.348,4.132a17.5,17.5,0,0,1,3.939-3.179c2.309-1.328,4.284-2.307,6.013-6.552l1.187.374-.563-3.9-2.822,2.432,1.119.456a7.607,7.607,0,0,1-5.886,4.188l-1.867-24.292h3.488s1.222-.014,1.222-1.08-1.222-1.065-1.222-1.065Z" transform="translate(-37.161 -18.005)" fill="#fff" fill-rule="evenodd"/>
    <path id="패스_6" data-name="패스 6" d="M280.13,269.489a1.3,1.3,0,0,0-.373.947,1.476,1.476,0,0,0,1.6,1.418h2.89c-.041.683-1.376,23.027-1.415,23.687-.706-.114-2.594-.712-4.736-3.722l1.239-.272-3.867-3.63-.75,5.086,1.317-.42c.442.963,2.032,4.134,4.407,5.558l1.459.849c1.785,1.018,2.863,1.634,3.772,3.166l.236.4.307-.348a17.339,17.339,0,0,1,3.854-3.109l.3-.172a11.212,11.212,0,0,0,5.726-6.26l1.414.446-.727-5.037-3.705,3.193,1.3.529a7.321,7.321,0,0,1-5.121,3.6c-.056-.729-1.756-22.853-1.81-23.546h3.124a1.464,1.464,0,0,0,1.559-1.418,1.446,1.446,0,0,0-1.559-1.4h-9.21A1.854,1.854,0,0,0,280.13,269.489Zm.3.947a.62.62,0,0,1,.171-.465,1.193,1.193,0,0,1,.751-.263h9.217c.147,0,.885.043.885.728,0,.7-.8.742-.89.743h-3.847L288.64,296.2l.363-.06a7.88,7.88,0,0,0,6.144-4.4l.124-.311-.918-.374,1.939-1.671c.1.727.3,2.109.4,2.758l-.971-.307-.118.288a10.689,10.689,0,0,1-5.566,6.213l-.3.174a17.715,17.715,0,0,0-3.724,2.928,9.785,9.785,0,0,0-3.775-3.037l-1.447-.842c-2.568-1.539-4.242-5.484-4.258-5.523l-.119-.284-.87.277c.1-.646.295-1.993.4-2.741l1.994,1.872-.968.211.275.411c3.068,4.581,5.806,4.464,5.922,4.457l.3-.019,1.5-25.045h-3.606C281.262,271.179,280.431,271.151,280.431,270.436Z" transform="translate(-36.073 -17.115)" fill="#3cb73c" fill-rule="evenodd"/>
    <g id="그룹_2" data-name="그룹 2" transform="translate(254.994 257.725)">
      <path id="패스_7" data-name="패스 7" d="M338.78,297.134c-1,.4-2.323-.528-2.951-2.083s-.324-3.142.676-3.547,2.324.527,2.952,2.082S339.782,296.728,338.78,297.134Z" transform="translate(-335.161 -291.071)" fill="#fff" fill-rule="evenodd"/>
      <path id="패스_8" data-name="패스 8" d="M335.477,290.3c-1.193.483-1.571,2.234-.862,3.986a4,4,0,0,0,1.969,2.216,1.822,1.822,0,0,0,1.42.053h0c1.192-.483,1.571-2.234.862-3.986S336.671,289.816,335.477,290.3Zm1.371,5.582a3.325,3.325,0,0,1-1.608-1.848c-.548-1.356-.324-2.779.49-3.109s1.965.541,2.512,1.9a4,4,0,0,1,.3,1.478,1.65,1.65,0,0,1-.79,1.63A1.186,1.186,0,0,1,336.848,295.877Z" transform="translate(-334.258 -290.175)" fill="#3cb73c" fill-rule="evenodd"/>
      <path id="패스_9" data-name="패스 9" d="M341.367,299.65c-.42.169-1.011-.311-1.318-1.074s-.217-1.518.2-1.686,1.009.31,1.318,1.073S341.786,299.479,341.367,299.65Z" transform="translate(-338.326 -295.021)" fill="#fff" fill-rule="evenodd"/>
      <path id="패스_10" data-name="패스 10" d="M339.233,295.686a.887.887,0,0,0-.48.5,2.22,2.22,0,0,0,.093,1.628c.389.964,1.144,1.506,1.756,1.26h0c.61-.247.776-1.161.388-2.126a2.224,2.224,0,0,0-1.065-1.236A.887.887,0,0,0,339.233,295.686Zm.238,1.872a1.569,1.569,0,0,1-.1-1.111.254.254,0,0,1,.113-.137.249.249,0,0,1,.177.02,1.571,1.571,0,0,1,.7.867,2.052,2.052,0,0,1,.158.752c0,.269-.074.455-.174.5C340.171,298.516,339.729,298.2,339.471,297.558Z" transform="translate(-337.435 -294.129)" fill="#3cb73c" fill-rule="evenodd"/>
    </g>
    <path id="패스_11" data-name="패스 11" d="M308.057,246.666A3.23,3.23,0,1,0,311,249.883,3.089,3.089,0,0,0,308.057,246.666Zm0,5.14a1.93,1.93,0,1,1,1.759-1.923A1.848,1.848,0,0,1,308.057,251.806Z" transform="translate(-58.123 -0.89)" fill="#fff" fill-rule="evenodd"/>
    <path id="패스_12" data-name="패스 12" d="M303.886,248.993a3.291,3.291,0,1,0,3.281-3.554A3.429,3.429,0,0,0,303.886,248.993Zm.674,0a2.62,2.62,0,1,1,2.607,2.881A2.757,2.757,0,0,1,304.56,248.993Z" transform="translate(-57.233 0)" fill="#3cb73c" fill-rule="evenodd"/>
    <path id="패스_13" data-name="패스 13" d="M308.2,252.411a2.1,2.1,0,1,0,2.1-2.259A2.186,2.186,0,0,0,308.2,252.411Zm.674,0A1.431,1.431,0,1,1,310.292,254,1.513,1.513,0,0,1,308.869,252.411Z" transform="translate(-60.359 -3.419)" fill="#3cb73c" fill-rule="evenodd"/>
    <path id="패스_14" data-name="패스 14" d="M318.914,260.311a.549.549,0,0,0-.754.021.5.5,0,0,0,.055.72l1.858,1.753a.478.478,0,0,0,.706,0,.51.51,0,0,0-.017-.726Z" transform="translate(-67.486 -10.681)" fill="#fff" fill-rule="evenodd"/>
    <path id="패스_15" data-name="패스 15" d="M317.025,259.212a.784.784,0,0,0-.23.581.957.957,0,0,0,.306.62l1.852,1.746a.9.9,0,0,0,.606.253.79.79,0,0,0,.576-.271.834.834,0,0,0-.027-1.2l-1.859-1.773-.008-.007A.871.871,0,0,0,317.025,259.212Zm2.4,2.463-1.863-1.758c-.143-.135-.074-.209-.041-.244.08-.084.178-.081.292.008l1.831,1.747a.194.194,0,0,1,.064.131.18.18,0,0,1-.06.121.165.165,0,0,1-.093.059A.239.239,0,0,1,319.42,261.675Z" transform="translate(-66.597 -9.792)" fill="#3cb73c" fill-rule="evenodd"/>
    <path id="패스_16" data-name="패스 16" d="M331.778,280.17s-.411-.712-.869-.469-.063.96-.063.96l1.83,3.471s.346.7.809.457.108-.941.108-.941Z" transform="translate(-76.674 -24.816)" fill="#fff" fill-rule="evenodd"/>
    <path id="패스_17" data-name="패스 17" d="M329.862,278.505a.724.724,0,0,0-.366.442,1.419,1.419,0,0,0,.165.979l1.826,3.466a1.333,1.333,0,0,0,.681.652.735.735,0,0,0,.584-.055A.991.991,0,0,0,333,282.6L331.18,279.1C330.967,278.734,330.45,278.193,329.862,278.505Zm2.515,4.9a.737.737,0,0,1-.29-.319c0-.007-1.832-3.478-1.832-3.478a.821.821,0,0,1-.113-.466.057.057,0,0,1,.035-.039c.118-.063.346.215.419.338l1.81,3.467a1.017,1.017,0,0,1,.092.353.14.14,0,0,1-.059.135A.068.068,0,0,1,332.376,283.4Z" transform="translate(-75.784 -23.918)" fill="#3cb73c" fill-rule="evenodd"/>
    <g id="그룹_3" data-name="그룹 3" transform="translate(224.984 261.132)">
      <path id="패스_18" data-name="패스 18" d="M251.255,307.858H249.8l-3.98-3.44a4.2,4.2,0,0,0-2.018-.608H226.5s.636,2.984,3.18,3.013h0s-.969,2.876,2.764,3.291h0s.055,2.653,2.4,3.318h16.407" transform="translate(-226.084 -303.473)" fill="#fff"/>
      <path id="패스_19" data-name="패스 19" d="M225.4,302.583h-.416l.087.407c.007.031.657,2.924,3.1,3.246a3.143,3.143,0,0,0-.041.491,2.619,2.619,0,0,0,.394,1.421,3.411,3.411,0,0,0,2.511,1.36,3.813,3.813,0,0,0,2.623,3.358l.045.012h16.454V312.2H233.811a3.076,3.076,0,0,1-2.095-2.644h15.466v-.675H231.344a2.915,2.915,0,0,1-2.248-1.094,1.957,1.957,0,0,1-.29-1.065,2.586,2.586,0,0,1,.042-.457h15.848V305.6H228.58a3.078,3.078,0,0,1-2.73-2.339H242.7a3.844,3.844,0,0,1,1.819.543l4.054,3.5h1.579v-.674h-1.328l-3.9-3.373-.02-.013a4.522,4.522,0,0,0-2.2-.662Z" transform="translate(-224.984 -302.583)" fill="#3cb73c"/>
      <path id="패스_20" data-name="패스 20" d="M315.883,307.858h1.453l3.98-3.44a4.207,4.207,0,0,1,2.02-.608h17.3s-.635,2.984-3.177,3.013h0s.967,2.876-2.764,3.291h0s-.056,2.653-2.406,3.318H315.883" transform="translate(-290.919 -303.473)" fill="#fff"/>
      <path id="패스_21" data-name="패스 21" d="M323.335,302.583a4.526,4.526,0,0,0-2.2.662l-.02.013-3.9,3.373h-1.327v.674h1.578l4.054-3.5a3.839,3.839,0,0,1,1.82-.544h16.853a3.078,3.078,0,0,1-2.731,2.339H321.344v.674h15.849a2.545,2.545,0,0,1,.042.456,1.962,1.962,0,0,1-.291,1.065,2.939,2.939,0,0,1-2.274,1.094H318.857v.675h15.467a3.077,3.077,0,0,1-2.1,2.644H315.883v.674h16.454l.044-.012a3.816,3.816,0,0,0,2.624-3.362,3.414,3.414,0,0,0,2.51-1.356,2.62,2.62,0,0,0,.394-1.421,3.132,3.132,0,0,0-.041-.49c2.443-.325,3.092-3.215,3.1-3.246l.087-.407h-17.72Z" transform="translate(-290.919 -302.583)" fill="#3cb73c"/>
    </g>
    <g id="그룹_4" data-name="그룹 4" transform="translate(240.476 255.28)">
      <path id="패스_22" data-name="패스 22" d="M315.758,312.049l9.4-3.442-4.879,4.945v.012l-4.523-1.515Z" transform="translate(-306.32 -301.1)" fill="#e50021"/>
      <path id="패스_23" data-name="패스 23" d="M315.406,311.9l-.113.041,4.662,1.562.018-.03,4.879-4.945-.045-.069Zm9.253-3.3-4.747,4.81c0-.012-3.693-1.25-4.364-1.475Z" transform="translate(-305.983 -300.995)" fill="#96999c"/>
      <path id="패스_24" data-name="패스 24" d="M308.183,281.332l-2.794,6.618-.063.008,2.857,4.306Z" transform="translate(-298.753 -281.316)" fill="#fce400"/>
      <path id="패스_25" data-name="패스 25" d="M305.163,287.877c-.007-.007-.035,0-.035,0l-.067.009,2.973,4.479V281.288l-.082-.016Zm2.785-6.38V292.08l-2.745-4.136C305.249,287.885,307.505,282.546,307.948,281.5Z" transform="translate(-298.561 -281.272)" fill="#96999c"/>
      <path id="패스_26" data-name="패스 26" d="M300.5,321.139l-5.767,8.625,5.767-3.526Z" transform="translate(-291.066 -310.191)" fill="#fce400"/>
      <path id="패스_27" data-name="패스 27" d="M300.368,320.747l-5.767,8.625.057.06,5.767-3.526.02-5.275Zm-.007.163v4.96c-.009-.016-4.677,2.836-5.583,3.389Z" transform="translate(-290.974 -309.822)" fill="#96999c"/>
      <path id="패스_28" data-name="패스 28" d="M300.373,321.139l-4.523,1.515-1.291,7.14.046-.03,5.768-8.625Z" transform="translate(-290.944 -310.191)" fill="#e50021"/>
      <path id="패스_29" data-name="패스 29" d="M300.205,320.889l-4.523,1.515c-.028.032-1.32,7.173-1.32,7.173l-.017.1.128-.082c.012-.012,5.78-8.637,5.78-8.637l.069-.1Zm-.09.12c-.133.2-5.532,8.272-5.642,8.437l1.265-6.994C295.744,322.471,299.434,321.236,300.115,321.009Z" transform="translate(-290.789 -309.981)" fill="#96999c"/>
      <path id="패스_30" data-name="패스 30" d="M290.9,312.049l-9.4-3.442,4.879,4.945,0,.012,4.523-1.515Z" transform="translate(-281.474 -301.1)" fill="#fce400"/>
      <path id="패스_31" data-name="패스 31" d="M281.394,308.531l4.879,4.945c.041.022,4.564-1.493,4.564-1.493l.114-.038-9.512-3.483Zm4.894,4.886c0-.042-3.953-4.053-4.7-4.811l9.109,3.335-4.408,1.477Z" transform="translate(-281.394 -300.995)" fill="#96999c"/>
      <path id="패스_32" data-name="패스 32" d="M288.023,305.461l-6.551.855.009.009,9.4,3.442Z" transform="translate(-281.451 -298.818)" fill="#e50021"/>
      <path id="패스_33" data-name="패스 33" d="M288,305.3l-6.551.855v.091l9.52,3.486-2.943-4.435Zm-.015.087,2.772,4.176-9.137-3.346Z" transform="translate(-281.436 -298.698)" fill="#96999c"/>
      <path id="패스_34" data-name="패스 34" d="M315.758,281.332l2.793,6.618.065.008-2.859,4.306Z" transform="translate(-306.32 -281.316)" fill="#e50021"/>
      <path id="패스_35" data-name="패스 35" d="M315.6,281.288v11.072l2.974-4.479-.133-.017h0c0-.053-2.76-6.592-2.76-6.592Zm.085.209,2.712,6.426c.014.01.022.008.04.013l-2.751,4.144Z" transform="translate(-306.208 -281.272)" fill="#96999c"/>
      <path id="패스_36" data-name="패스 36" d="M315.758,321.139l5.769,8.625-5.769-3.526Z" transform="translate(-306.32 -310.191)" fill="#e50021"/>
      <path id="패스_37" data-name="패스 37" d="M315.6,320.771v5.1c.021.036,5.789,3.562,5.789,3.562l.057-.06-5.847-8.741Zm.065,5.063s.018-4.663.02-4.925l5.585,8.35Z" transform="translate(-306.208 -309.822)" fill="#96999c"/>
      <path id="패스_38" data-name="패스 38" d="M315.758,321.139l4.523,1.515,1.292,7.14-.046-.03-5.769-8.625Z" transform="translate(-306.32 -310.191)" fill="#fce400"/>
      <path id="패스_39" data-name="패스 39" d="M315.448,320.953l5.769,8.625a.654.654,0,0,0,.057.041l.082.054-1.309-7.237c-.029-.032-4.551-1.547-4.551-1.547l-.118-.039Zm.139.056,4.4,1.475h0c0,.11,1.068,6.02,1.239,6.966C320.805,328.811,316.2,321.928,315.587,321.009Z" transform="translate(-306.046 -309.981)" fill="#96999c"/>
      <path id="패스_40" data-name="패스 40" d="M318.616,305.461l6.551.855-.009.009-9.4,3.442Z" transform="translate(-306.32 -298.818)" fill="#fce400"/>
      <path id="패스_41" data-name="패스 41" d="M318.3,305.317l-2.93,4.413,9.522-3.486v-.091l-6.577-.858Zm.056.069,6.366.83-9.139,3.346Z" transform="translate(-306.039 -298.698)" fill="#96999c"/>
    </g>
  </g>
</svg>
